<svg version="1.1" id="Layer_1" xmlns="http://www.w3.org/2000/svg" xmlns:xlink="http://www.w3.org/1999/xlink" x="0px" y="0px"
	 viewBox="0 0 286.89 286.89" style="enable-background:new 0 0 286.89 286.89;" xml:space="preserve">
<g>
	<g>
		<g>
			<g id="XMLID_26_">
				<g>
					<path style="fill:#505967;" d="M110.755,182.592L50.37,242.946l-8.737-8.768l60.602-60.602
						C104.896,176.736,107.75,179.741,110.755,182.592z"/>
					<path style="fill:#505967;" d="M182.448,186.991c44.243,0,80.245-36.002,80.245-80.214c0-44.243-36.002-80.214-80.245-80.214
						c-44.212,0-80.214,35.971-80.214,80.214C102.235,150.99,138.236,186.991,182.448,186.991z M182.448,18.384
						c48.767,0,88.424,39.658,88.424,88.393s-39.658,88.393-88.424,88.393c-48.736,0-88.393-39.658-88.393-88.393
						S133.713,18.384,182.448,18.384z"/>
					<path style="fill:#2D213F;" d="M182.448,2.335c57.597,0,104.442,46.846,104.442,104.442
						c0,57.566-46.846,104.442-104.442,104.442c-21.967,0-42.353-6.847-59.177-18.466l-89.478,89.478
						c-1.518,1.487-3.532,2.324-5.67,2.324s-4.183-0.837-5.67-2.324L2.347,262.124c-3.129-3.129-3.129-8.21,0-11.34l90.469-90.5
						c-9.388-15.646-14.779-33.957-14.779-53.507C78.037,49.181,124.88,2.335,182.448,2.335z M270.87,106.777
						c0-48.736-39.658-88.393-88.424-88.393c-48.736,0-88.393,39.658-88.393,88.393s39.658,88.393,88.393,88.393
						C231.215,195.171,270.87,155.513,270.87,106.777z M50.367,242.946l60.385-60.354c-3.005-2.85-5.856-5.856-8.52-9.016
						L41.63,234.178L50.367,242.946z M28.124,265.191l10.906-10.906l-8.768-8.737l-10.906,10.906L28.124,265.191z"/>
					<path style="fill:#F2F2F2;" d="M182.448,42.582c35.413,0,64.196,28.814,64.196,64.196s-28.783,64.165-64.196,64.165
						c-35.382,0-64.165-28.783-64.165-64.165S147.063,42.582,182.448,42.582z"/>
					<path style="fill:#2D213F;" d="M182.448,170.942c35.413,0,64.196-28.783,64.196-64.165s-28.783-64.196-64.196-64.196
						c-35.382,0-64.165,28.814-64.165,64.196S147.063,170.942,182.448,170.942z M182.448,26.564
						c44.243,0,80.245,35.971,80.245,80.214c0,44.212-36.002,80.214-80.245,80.214c-44.212,0-80.214-36.002-80.214-80.214
						C102.235,62.534,138.236,26.564,182.448,26.564z"/>
				</g>
			</g>
		</g>
		<path style="fill:#C5CBCF;" d="M202.522,45.841c-6.324-2.088-13.059-3.259-20.074-3.259c-35.382,0-64.165,28.814-64.165,64.196
			c0,3.637,0.375,7.185,0.96,10.661C128.499,61.168,185.277,48.419,202.522,45.841z"/>
	</g>
</g>
<g>
</g>
<g>
</g>
<g>
</g>
<g>
</g>
<g>
</g>
<g>
</g>
<g>
</g>
<g>
</g>
<g>
</g>
<g>
</g>
<g>
</g>
<g>
</g>
<g>
</g>
<g>
</g>
<g>
</g>
</svg>
